<svg width="34" height="30" viewBox="0 0 34 30" fill="none" xmlns="http://www.w3.org/2000/svg">
<path d="M0.89595 13.5989L12.8907 0.575795C13.2331 0.20405 13.6894 0 14.176 0C14.6631 0 15.1192 0.204343 15.4616 0.575795L16.5506 1.75846C16.8928 2.12962 17.0813 2.62538 17.0813 3.15398C17.0813 3.68228 16.8928 4.19475 16.5506 4.56591L9.5531 12.18H31.7846C32.787 12.18 33.579 13.0319 33.579 14.1205V15.7925C33.579 16.881 32.787 17.8189 31.7846 17.8189H9.47371L16.5504 25.4754C16.8925 25.8472 17.081 26.3295 17.081 26.858C17.081 27.3861 16.8925 27.8754 16.5504 28.2468L15.4613 29.4257C15.1189 29.7974 14.6629 30 14.1757 30C13.6891 30 13.2328 29.7948 12.8904 29.423L0.895679 16.4002C0.552471 16.0273 0.363724 15.5295 0.365074 15.0003C0.363995 14.4694 0.552475 13.9713 0.89595 13.5989Z" fill="#F2F1F1"/>
</svg>
