<svg width="37" height="30" viewBox="0 0 37 30" fill="none" xmlns="http://www.w3.org/2000/svg">
<path d="M35.4844 13.5989L22.4616 0.575795C22.0898 0.20405 21.5944 0 21.0661 0C20.5372 0 20.042 0.204343 19.6703 0.575795L18.4879 1.75846C18.1165 2.12962 17.9118 2.62538 17.9118 3.15398C17.9118 3.68228 18.1165 4.19475 18.4879 4.56591L26.0852 12.18H1.94815C0.859882 12.18 0 13.0319 0 14.1205V15.7925C0 16.881 0.859882 17.8189 1.94815 17.8189H26.1714L18.4882 25.4754C18.1167 25.8472 17.9121 26.3295 17.9121 26.858C17.9121 27.3861 18.1167 27.8754 18.4882 28.2468L19.6706 29.4257C20.0423 29.7974 20.5375 30 21.0664 30C21.5947 30 22.0901 29.7948 22.4619 29.423L35.4847 16.4002C35.8573 16.0273 36.0623 15.5295 36.0608 15.0003C36.062 14.4694 35.8573 13.9713 35.4844 13.5989Z" fill="#F2F1F1"/>
</svg>
