<svg xmlns="http://www.w3.org/2000/svg" width="40" height="40" fill="none"><path d="M35.313 15.313C35.313 6.87 28.443 0 20 0L9.453 31.797h25.86V15.313z" fill="#fc2339"/><path d="M4.688 15.313v16.484H20V0C11.557 0 4.688 6.87 4.688 15.313z" fill="#ff5253"/><path d="M15.313 24.096h7.032v7.7h-7.032v-7.7z" fill="#ff7b6b"/><path d="M20 24.096h4.688v7.7H20v-7.7z" fill="#ff5253"/><path d="M20 4.693L12 15.318 20 25.943c5.868 0 10.625-4.757 10.625-10.625S25.868 4.693 20 4.693h0z" fill="#ff7b6b"/><path d="M9.375 15.318c0 5.868 4.757 10.625 10.625 10.625V4.693A10.63 10.63 0 0 0 9.375 15.318h0z" fill="#ff9d7d"/><path d="M20 9.38l-4.465 5.937L20 21.256a5.94 5.94 0 0 0 5.938-5.938A5.94 5.94 0 0 0 20 9.381h0z" fill="#ffd959"/><path d="M14.063 15.318A5.94 5.94 0 0 0 20 21.256V9.38a5.94 5.94 0 0 0-5.937 5.937h0z" fill="#ffeaa6"/><path d="M37.656 28.28v8.203H15.313L20 28.28h17.656z" fill="#212121"/><g fill="#18181a"><path d="M2.344 28.28H20v8.203H2.344V28.28z"/><path d="M37.656 35.313c1.294 0 2.344 1.05 2.344 2.344S38.95 40 37.656 40H20l-2.344-2.344L20 35.313h17.656z"/></g><path d="M2.344 35.313C1.05 35.313 0 36.362 0 37.656S1.05 40 2.344 40H20v-4.687H2.344z" fill="#212121"/></svg>