<svg width="40" height="40" viewBox="0 0 40 40" fill="none" xmlns="http://www.w3.org/2000/svg">
<path d="M27.3205 23.7359C32.122 16.9557 30.5162 7.56711 23.7359 2.7667C16.9557 -2.03371 7.56711 -0.428986 2.7667 6.35238C-2.03371 13.1326 -0.428986 22.5201 6.35238 27.3205C11.1918 30.7467 17.59 31.0105 22.6944 27.9961L33.7853 39.0204C34.9828 40.281 36.9752 40.3315 38.2358 39.134C39.4964 37.9376 39.5469 35.9451 38.3505 34.6845C38.3127 34.6444 38.276 34.6077 38.2358 34.5698L27.3205 23.7359ZM15.0344 24.7637C9.67653 24.7648 5.33265 20.4244 5.32921 15.0665C5.32806 9.70865 9.6685 5.36477 15.0275 5.36247C20.3785 5.36018 24.7201 9.69374 24.7304 15.0447C24.7396 20.4038 20.4015 24.7545 15.0413 24.7637C15.039 24.7637 15.0378 24.7637 15.0344 24.7637Z" fill="#F2F1F1"/>
</svg>
