<svg xmlns="http://www.w3.org/2000/svg" width="40" height="40" fill="none"><path d="M25.23 4.894L39.193 29.08c.512.887.807 1.915.807 3.013a6.04 6.04 0 0 1-6.036 6.036H20L15.17 20 20 1.87c2.236 0 4.186 1.217 5.23 3.023z" fill="#18181a"/><path d="M14.77 4.894L.806 29.08C.294 29.967 0 30.995 0 32.093a6.04 6.04 0 0 0 6.036 6.036H20V1.87c-2.236 0-4.187 1.217-5.23 3.023z" fill="#212121"/><path d="M37.103 30.287L23.14 6.1c-.63-1.09-1.785-1.78-3.035-1.814l11.943 31.428h1.917c1.997 0 3.622-1.625 3.622-3.622a3.62 3.62 0 0 0-.483-1.806z" fill="#ffb751"/><path d="M34.754 30.287c.273.547.417 1.172.417 1.806 0 1.997-1.4 3.622-3.124 3.622h-26c-1.997 0-3.622-1.625-3.622-3.622a3.62 3.62 0 0 1 .483-1.806L16.86 6.1c.647-1.12 1.85-1.816 3.14-1.816l.104.002c1.073.042 2.064.728 2.604 1.814l12.047 24.186z" fill="#ffd764"/><path d="M20 27.667v4.024a2.01 2.01 0 1 0 0-4.024z" fill="#18181a"/><path d="M20 27.667c.222 0 .402.9.402 2.012s-.18 2.012-.402 2.012a2.01 2.01 0 1 1 0-4.024z" fill="#212121"/><path d="M20 10.363v14.89c1.11 0 2.012-.902 2.012-2.012V12.375A2.01 2.01 0 0 0 20 10.363z" fill="#18181a"/><path d="M20 10.363c.222 0 .402.9.402 2.012V23.24c0 1.11-.18 2.012-.402 2.012-1.11 0-2.012-.902-2.012-2.012V12.375A2.01 2.01 0 0 1 20 10.363z" fill="#212121"/></svg>